<svg xmlns="http://www.w3.org/2000/svg" viewBox="0 0 32 32">
    <rect width="32" height="32" fill="none"/>
    <path d="M24.044,23.002c1.688,0.032 3.176,1.682 2.933,3.419c-0.199,1.416 -1.535,2.582 -2.972,2.582c-1.729,0 -3.273,-1.745 -2.954,-3.531c0.242,-1.35 1.495,-2.443 2.916,-2.47c0.038,0 0.038,0 0.077,0Zm-13.485,-4.001l-5.252,-14.004l-1.307,0c0,0 -0.964,-0.209 -0.999,-0.952c-0.023,-0.475 0.34,-0.94 0.81,-1.03c0.083,-0.016 0.105,-0.014 0.189,-0.018l2.001,0c0.031,0.001 0.062,0.003 0.093,0.004c0.316,0.045 0.602,0.213 0.762,0.477c0.043,0.071 0.049,0.092 0.081,0.168l5.758,15.355l12.463,0l1.667,-10.003l-14.823,0c0,0 -0.474,-0.019 -0.756,-0.345c-0.333,-0.384 -0.303,-1.027 0.066,-1.379c0.138,-0.132 0.313,-0.222 0.501,-0.258c0.083,-0.016 0.105,-0.014 0.189,-0.018l16.004,0c0.589,0.028 1.059,0.551 0.987,1.164l-2.001,12.003c-0.1,0.468 -0.499,0.813 -0.986,0.836l-14.004,0c-0.671,0 -1.342,-0.004 -2.014,0c-0.756,0.015 -1.291,1.065 -0.72,1.681c0.187,0.201 0.458,0.318 0.737,0.32l7.999,0c0.776,0.024 1.312,1.064 0.729,1.685c-0.158,0.168 -0.376,0.278 -0.604,0.307c-0.056,0.007 -0.07,0.006 -0.125,0.008l-3.205,0c0.174,0.443 0.244,0.927 0.175,1.419c-0.199,1.416 -1.535,2.582 -2.972,2.582c-1.729,0 -3.273,-1.745 -2.954,-3.531c0.036,-0.202 0.095,-0.399 0.174,-0.587c-1.193,-0.354 -2.155,-1.47 -2.217,-2.735c-0.08,-1.601 1.296,-3.138 2.993,-3.149l0.561,0Zm1.43,6.001c-0.766,0.015 -1.312,1.104 -0.685,1.716c0.515,0.503 1.578,0.215 1.689,-0.575c0.079,-0.566 -0.378,-1.145 -1.004,-1.141Zm12.003,0c-0.766,0.015 -1.312,1.104 -0.685,1.716c0.514,0.502 1.578,0.215 1.689,-0.575c0.079,-0.566 -0.379,-1.145 -1.004,-1.141Zm-6.989,-12.003l0,-1c0.004,-0.163 0.019,-0.216 0.051,-0.313c0.136,-0.413 0.552,-0.704 1.009,-0.685c0.52,0.041 0.93,0.437 0.941,0.998l0,1l1,0c0.013,0.001 0.027,0.001 0.04,0.001c0.763,0.046 1.247,1.069 0.702,1.671c-0.187,0.206 -0.459,0.323 -0.742,0.329l-1,0l0,1c-0.018,0.887 -1.411,1.383 -1.889,0.459c-0.073,-0.14 -0.108,-0.297 -0.112,-0.459l0,-1l-1,0c-0.78,-0.016 -1.29,-1.066 -0.741,-1.672c0.186,-0.206 0.458,-0.323 0.741,-0.329l1,0Z" fill="currentColor"/>
</svg>
