<svg xmlns="http://www.w3.org/2000/svg"
    viewBox="0 0 24 24"
    width="24"
    height="24"
    fill="#ffffff">
    <path
        fill="#ffffffFF"
        fill-rule="evenodd"
        clip-rule="evenodd"
        d="M12.5 3a9 9 0 0 0 0 18c2.27 0 4.343-.84 5.927-2.227C14.177 17.827 11 14.035 11 9.5c0-2.487.956-4.75 2.519-6.443A9.107 9.107 0 0 0 12.5 3Zm-11 9c0-6.075 4.925-11 11-11 1.214 0 2.384.197 3.478.561a1 1 0 0 1 .254 1.771A7.5 7.5 0 0 0 20.5 17a1.001 1.001 0 0 1 .8 1.6c-2.005 2.67-5.2 4.4-8.8 4.4-6.075 0-11-4.925-11-11Z"/>
</svg>
