<svg xmlns="http://www.w3.org/2000/svg"
    viewBox="0 0 64 64"
    width="32"
    height="32">

    <path fill="#ff9526" d="M42 45c-2.76 0-5 2.24-5 5s2.24 5 5 5
        5-2.24 5-5-2.24-5-5-5zm0 8c-1.65 0-3-1.35-3-3s1.35-3
        3-3 3 1.35 3 3-1.35 3-3 3zM24 45c-2.76 0-5 2.24-5 5s2.24
        5 5 5 5-2.24 5-5-2.24-5-5-5zm0 8c-1.65 0-3-1.35-3-3s1.35-3
        3-3 3 1.35 3 3-1.35 3-3 3zM58.47 16.29c-.56-.81-1.48-1.29-2.46-1.29H13.17l-.37-1.87c-.46-2.41-2.59-4.17-5.07-4.17h-3.74c-.57 0-1.04.46-1.04 1.04s.46 1.04 1.04 1.04h3.74c1.48 0 2.76 1.04 3.03 2.48l.53 2.7s.03.08.05.13l4.32 22.6c.49 2.34 2.57 4.04 4.93 4.04h25.56c2.11 0 3.95-1.28 4.68-3.24l7.95-20.7c.35-.92.23-1.96-.32-2.77zm-1.54 2.05l-7.95 20.71c-.44 1.19-1.55 1.95-2.81 1.95h-25.56c-1.42 0-2.67-1.03-2.97-2.44l-4.12-21.56h42.51c.33 0 .62.15.81.42.19.27.23.61.11.92z"/>

    <path fill="#3d85ff" d="m43.29,21.29l-11.29,11.29-5.29-5.29c-.39-.39-1.02-.39-1.41,0s-.39,1.02,0,1.41l6,6c.2.2.45.29.71.29s.51-.1.71-.29l12-12c.39-.39.39-1.02,0-1.41s-1.02-.39-1.41,0Z"/>
</svg>
