<svg
    xmlns="http://www.w3.org/2000/svg"
    viewBox="0 0 64 64"
    width="288"
    height="288">

    <!-- Outer wave -->
    <path
        fill="#FF9526"
        d="M58.56 18.79a40.92 40.92 0 0 0-53.29.15A3.72 3.72 0 0 0 4 21.64a3.89 3.89 0 0 0 1.12 2.87l.26.25A3.79 3.79 0 0 0 8 25.88a3.91 3.91 0 0 0 2.53-.95 32.95 32.95 0 0 1 42.75-.11 3.83 3.83 0 0 0 5.38-.35l.23-.27a3.86 3.86 0 0 0 .95-2.81 3.78 3.78 0 0 0-1.28-2.6Z"/>

    <!-- Middle wave -->
    <path
        fill="#FF9526"
        d="M50.05 27.32a28.94 28.94 0 0 0-36.1 0 3.82 3.82 0 0 0-.33 5.68l.24.25a3.8 3.8 0 0 0 5 .32 21 21 0 0 1 26.2 0 3.72 3.72 0 0 0 2.32.81 3.85 3.85 0 0 0 2.72-1.13l.24-.25a3.82 3.82 0 0 0-.33-5.71Z"/>

    <!-- Inner wave -->
    <path
        fill="#FF9526"
        d="M41.15 35.67a17 17 0 0 0-18.29 0 3.84 3.84 0 0 0-.66 5.95l.25.24A3.76 3.76 0 0 0 25.13 43a4.09 4.09 0 0 0 2.13-.61 9.13 9.13 0 0 1 9.48 0 3.88 3.88 0 0 0 4.81-.49l.25-.24a3.85 3.85 0 0 0 1.1-3.12 3.89 3.89 0 0 0-1.75-2.87Z"/>

    <!-- Dot -->
    <circle
        cx="32" cy="50" r="5"
        fill="#FF9526"/>

    <!-- Vertical line -->
    <path
        fill="#FF9526"
        d="M17.5 58.11a1 1 0 0 1-.87-1.5l29-50.22a1 1 0 0 1 1.74 1l-29 50.22a1 1 0 0 1-.87.5Z"/>
</svg>
